#!OML:ASF F:\VICON\USERDATA\INSTALL\rory3\rory3.ASF
:FULLY-SPECIFIED
:DEGREES
411
root -4.04619 16.7302 -29.9089 199.371 19.0337 -535.625
lowerback -10.516 5.77682 9.58015
upperback -8.29095 7.96339 -0.298651
thorax -1.67853 4.05042 -4.8622
lowerneck -13.6641 -3.92623 -5.45854
upperneck 28.0172 -4.0643 4.78732
head 11.6198 -1.21116 2.26385
rclavicle -1.37161e-014 -5.56597e-015
rhumerus -37.5657 29.7134 -112.722
rradius 46.772
rwrist 10.8263
rhand -13.2628 -37.9072
rfingers 7.12502
rthumb 12.8398 -67.4923
lclavicle -1.37161e-014 -5.56597e-015
lhumerus -62.1919 4.46663 73.439
lradius 24.3083
lwrist 10.3345
lhand -25.3021 338.542
lfingers 7.12502
lthumb 1.21977 8.51872
rfemur -6.56439 22.5255 28.9787
rtibia 35.6145
rfoot 14.4474 30.3346
rtoes 24.4276
lfemur -56.069 5.12565 -22.4531
ltibia 50.9975
lfoot -11.7641 5.32256
ltoes -0.240683
412
root -4.02785 16.6837 -30.0908 199.333 18.5979 -536.355
lowerback -10.3265 5.39339 8.98074
upperback -8.3346 7.50316 -0.565924
thorax -1.91621 3.8178 -4.89949
lowerneck -16.1704 -4.12116 -4.76278
upperneck 29.3921 -4.30738 4.14109
head 12.6644 -1.29748 1.86731
rclavicle 1.5381e-014 1.59028e-015
rhumerus -37.4809 29.1583 -112.224
rradius 47.2925
rwrist 10.0884
rhand -13.7877 -38.0266
rfingers 7.12502
rthumb 12.3338 -67.6428
lclavicle 1.5381e-014 1.59028e-015
lhumerus -61.7162 4.92438 72.555
lradius 24.0163
lwrist 10.9252
lhand -24.7301 339.177
lfingers 7.12502
lthumb 1.77227 9.1494
rfemur -6.64311 21.7553 28.3415
rtibia 36.1589
rfoot 16.5069 29.1795
rtoes 23.0946
lfemur -56.1489 4.47211 -23.2662
ltibia 51.9838
lfoot -12.7762 5.81219
ltoes 0.448772
413
root -4.00905 16.6397 -30.2563 198.657 18.0265 -537.027
lowerback -9.40057 4.87792 8.46988
upperback -8.51913 6.94877 -0.686093
thorax -2.72674 3.51151 -4.92094
lowerneck -15.6565 -3.85388 -5.03013
upperneck 29.0748 -4.06579 4.84828
head 12.4387 -1.13266 2.22165
rclavicle -7.3774e-014 -3.73715e-014
rhumerus -38.1994 28.4993 -112.095
rradius 47.7847
rwrist 9.23968
rhand -14.6764 -37.9586
rfingers 7.12502
rthumb 11.4768 -67.6244
lclavicle -7.3774e-014 -3.73715e-014
lhumerus -62.0242 5.21439 71.8374
lradius 23.3729
lwrist 10.0993
lhand -26.3247 337.217
lfingers 7.12502
lthumb 0.232183 7.19698
rfemur -6.12077 20.8907 28.0765
rtibia 36.8098
rfoot 18.5041 27.8412
rtoes 19.8804
lfemur -55.6339 3.51893 -23.7694
ltibia 53.0143
lfoot -13.7351 6.38148
ltoes 2.7871
414
root -3.98176 16.5725 -30.4562 198.887 17.0639 -536.698
lowerback -10.6861 4.76275 9.41013
upperback -8.56777 6.65554 -0.842384
thorax -2.03681 3.37681 -5.51471
lowerneck -14.0339 -3.74375 -5.1276
upperneck 28.4162 -4.03683 5.40597
head 11.8537 -1.06211 2.45317
rclavicle -1.04113e-014 -1.80894e-014
rhumerus -38.7527 26.9792 -111.785
rradius 48.2239
rwrist 8.94522
rhand -14.6396 -38.2119
rfingers 7.12502
rthumb 11.5123 -67.8757
lclavicle -1.04113e-014 -1.80894e-014
lhumerus -62.1287 4.89167 71.0752
lradius 23.4044
lwrist 10.0618
lhand -26.1878 339.911
lfingers 7.12502
lthumb 0.364404 9.89003
rfemur -6.09069 19.4882 28.6515
rtibia 37.7692
rfoot 21.5102 25.9439
rtoes 21.0095
lfemur -55.7821 3.05781 -23.4737
ltibia 54.0886
lfoot -14.9479 6.17784
ltoes 4.17692
415
root -3.93658 16.5069 -30.6466 199.477 16.7823 -536.79
lowerback -12.2772 4.88566 9.28408
upperback -8.31992 6.65319 -0.977411
thorax -0.910971 3.44383 -5.42066
lowerneck -14.5244 -3.969 -5.35698
upperneck 28.4935 -4.33811 5.48163
head 12.0139 -1.21794 2.47373
rclavicle 6.64686e-015 -7.95139e-015
rhumerus -38.2634 25.8811 -110.561
rradius 48.6571
rwrist 8.49271
rhand -13.9028 -39.0895
rfingers 7.12502
rthumb 12.2228 -68.7123
lclavicle 6.64686e-015 -7.95139e-015
lhumerus -61.1217 4.77384 70.7996
lradius 22.9447
lwrist 9.78977
lhand -26.7576 338.619
lfingers 7.12502
lthumb -0.186018 8.59842
rfemur -6.79592 18.5283 28.4309
rtibia 38.9698
rfoot 21.3629 26.0189
rtoes 19.2684
lfemur -56.3774 3.11419 -23.7693
ltibia 55.2325
lfoot -16.4552 5.85214
ltoes 5.2235
416
root -3.88221 16.4486 -30.7933 199.335 16.7044 -537.789
lowerback -11.1669 4.53725 7.67567
upperback -8.7029 6.47492 -1.20611
thorax -2.04445 3.35813 -4.92633
lowerneck -16.1532 -4.1583 -5.33432
upperneck 29.2502 -4.63543 5.57344
head 12.6803 -1.3141 2.46637
rclavicle -1.72818e-014 -7.15625e-015
rhumerus -38.4215 24.9047 -109.849
rradius 48.9789
rwrist 7.67392
rhand -14.0183 -39.8638
rfingers 7.12502
rthumb 12.1115 -69.4933
lclavicle -1.72818e-014 -7.15625e-015
lhumerus -60.5861 4.50239 70.4227
lradius 22.676
lwrist 9.88807
lhand -26.3808 338.549
lfingers 7.12502
lthumb 0.177997 8.52835
rfemur -7.4104 17.769 27.5351
rtibia 40.4959
rfoot 21.6894 25.1192
rtoes 17.1411
lfemur -56.4521 2.98463 -24.8121
ltibia 56.2684
lfoot -17.8804 5.52443
ltoes 5.92992
417
root -3.84195 16.3778 -30.9811 199.441 16.1057 -537.478
lowerback -10.3921 3.85985 7.39177
upperback -10.4485 6.1031 -0.629983
thorax -4.50806 3.20294 -4.4109
lowerneck -12.6609 -4.06689 -5.55718
upperneck 29.5294 -4.14648 5.20781
head 12.0291 -1.07922 2.49415
rclavicle 3.88127e-014 3.04141e-014
rhumerus -42.664 23.3742 -110.654
rradius 49.497
rwrist 7.44125
rhand -15.0002 -39.8619
rfingers 7.12502
rthumb 11.1646 -69.5448
lclavicle 3.88127e-014 3.04141e-014
lhumerus -63.8645 3.70795 70.1908
lradius 22.9354
lwrist 9.8114
lhand -26.6842 338.835
lfingers 7.12502
lthumb -0.115114 8.81426
rfemur -7.83715 16.5857 28.0151
rtibia 42.4085
rfoot 22.1644 24.027
rtoes 16.7096
lfemur -56.3978 2.78677 -24.4503
ltibia 57.3928
lfoot -19.0942 5.22946
ltoes 6.9826
418
root -3.80456 16.3156 -31.1906 198.888 16.5611 -537.97
lowerback -11.9653 4.21548 7.16066
upperback -9.03768 6.13608 -1.05601
thorax -2.08133 3.24469 -4.4813
lowerneck -14.1161 -4.10732 -5.27262
upperneck 28.9063 -4.47653 5.3718
head 12.0982 -1.24987 2.41673
rclavicle 4.14963e-015 3.97569e-015
rhumerus -40.6631 22.9148 -109.207
rradius 49.3391
rwrist 7.42407
rhand -15.7139 -39.6341
rfingers 7.12502
rthumb 10.4761 -69.353
lclavicle 4.14963e-015 3.97569e-015
lhumerus -61.3737 3.84538 70.0767
lradius 22.4264
lwrist 9.11835
lhand -27.302 338.165
lfingers 7.12502
lthumb -0.711814 8.14394
rfemur -7.85067 15.5896 27.2812
rtibia 44.6504
rfoot 22.123 23.5375
rtoes 17.3047
lfemur -55.4563 3.05245 -25.1923
ltibia 58.3889
lfoot -20.5813 5.44696
ltoes 6.09168
419
root -3.78757 16.2396 -31.275 197.411 15.3827 -538.67
lowerback -9.58049 3.72192 6.72372
upperback -8.75712 5.54296 -1.2269
thorax -3.14935 2.86413 -4.66354
lowerneck -15.585 -4.43698 -5.41086
upperneck 29.236 -4.99112 5.5015
head 12.5807 -1.48364 2.40204
rclavicle -2.30342e-014 -5.96354e-015
rhumerus -40.2467 21.9185 -108.077
rradius 49.3411
rwrist 7.49627
rhand -15.6323 -40.5055
rfingers 7.12502
rthumb 10.5549 -70.2205
lclavicle -2.30342e-014 -5.96354e-015
lhumerus -60.1811 3.55232 70.1491
lradius 22.248
lwrist 8.91931
lhand -27.0076 339.191
lfingers 7.12502
lthumb -0.42743 9.17078
rfemur -7.75688 13.7861 27.5234
rtibia 47.3672
rfoot 20.3279 22.7033
rtoes 14.2116
lfemur -54.2861 2.14702 -25.4936
ltibia 59.3343
lfoot -21.5894 5.55273
ltoes 5.46075
420
root -3.73767 16.163 -31.4019 198.045 14.8996 -538.554
lowerback -11.2843 3.61783 6.44998
upperback -7.97367 5.19312 -1.14189
thorax -1.45371 2.74909 -4.28155
lowerneck -15.7302 -4.26803 -5.52129
upperneck 28.0751 -4.94368 5.8635
head 12.1537 -1.50659 2.5245
rclavicle 3.885e-014 1.12313e-014
rhumerus -38.7514 21.6102 -106.752
rradius 49.2856
rwrist 7.28755
rhand -15.3098 -42.6396
rfingers 7.12502
rthumb 10.866 -72.3384
lclavicle 3.885e-014 1.12313e-014
lhumerus -57.985 3.99281 70.0278
lradius 21.9188
lwrist 8.36368
lhand -27.1657 337.757
lfingers 7.12502
lthumb -0.580132 7.736
rfemur -9.59213 12.3531 27.6593
rtibia 50.1555
rfoot 18.7559 21.8788
rtoes 11.0611
lfemur -55.0806 2.16312 -25.4182
ltibia 60.3359
lfoot -22.4936 4.87256
ltoes 7.19311
421
root -3.69539 16.0918 -31.4947 198.313 14.7833 -538.681
lowerback -10.8205 3.40017 5.80014
upperback -8.39592 5.06366 -1.05586
thorax -2.21889 2.70301 -3.90344
lowerneck -14.4783 -4.1631 -5.82063
upperneck 27.4397 -4.79568 6.11317
head 11.6534 -1.46114 2.688
rclavicle -6.19463e-014 -6.16232e-015
rhumerus -39.3228 20.6255 -106.067
rradius 49.1961
rwrist 7.11201
rhand -15.8559 -43.7625
rfingers 7.12502
rthumb 10.3392 -73.4883
lclavicle -6.19463e-014 -6.16232e-015
lhumerus -57.7142 3.55358 70.1519
lradius 22.1714
lwrist 8.03518
lhand -27.7642 337.242
lfingers 7.12502
lthumb -1.15821 7.21853
rfemur -11.5856 11.1768 27.5667
rtibia 53.4446
rfoot 17.0594 20.3885
rtoes 8.2131
lfemur -55.6001 2.29986 -25.5895
ltibia 61.1609
lfoot -23.0881 4.60675
ltoes 7.26064
